# xmcd
# 
# Track frame offsets:
#     150
#     19445
#     39125
#     62152
#     81362
#     103455
#     117095
#     135757
#     156535
#     178502
#     200722
# 
# Disc length: 2907
# 
# Revision: 1
# Processed by: cddbd v1.5.2PL0 Copyright (c) Steve Scherf et al.
# Submitted via: BonkEnc v1.0.8
# 
DISCID=970b590b
DTITLE=Human Clay - U4ia
DYEAR=1997
DGENRE=Hard Rock
TTITLE0=Lessons Of Love
TTITLE1=King Of The Nation
TTITLE2=Salvation
TTITLE3=Pain and Deception
TTITLE4=The Thin Line
TTITLE5=Speed Demon (Dedicated 2 'The Worm')
TTITLE6=U4ia
TTITLE7=Pretender
TTITLE8=Stand 4 The Fall
TTITLE9=Survive
TTITLE10=Boy On A Golden Hill (Bonus Track)
EXTD=YEAR: 1997
EXTT0=
EXTT1=
EXTT2=
EXTT3=
EXTT4=
EXTT5=
EXTT6=
EXTT7=
EXTT8=
EXTT9=
EXTT10=
PLAYORDER=
